HIERARCHY
ROOT Hips
{
	OFFSET 0.000000 0.000000 0.000000 
	CHANNELS 6 Xposition Yposition Zposition Zrotation Xrotation Yrotation
	JOINT Spine
	{
		OFFSET -0.000000 8.061080 0.000000 
		CHANNELS 3 Zrotation Xrotation Yrotation
		JOINT Spine1
		{
			OFFSET -0.000000 20.532677 0.000000 
			CHANNELS 3 Zrotation Xrotation Yrotation
			JOINT Neck
			{
				OFFSET -0.000000 22.498795 0.000000 
				CHANNELS 3 Zrotation Xrotation Yrotation
				JOINT Head
				{
					OFFSET -0.000000 15.237408 1.966117 
					CHANNELS 3 Zrotation Xrotation Yrotation
					End Site
					{
						OFFSET -0.000000 19.661171 0.000000 
					}
				}
			}
			JOINT LeftShoulder
			{
				OFFSET 3.894675 16.042269 -0.398189 
				CHANNELS 3 Zrotation Xrotation Yrotation
				JOINT LeftArm
				{
					OFFSET 19.709621 0.000000 0.000000 
					CHANNELS 3 Zrotation Xrotation Yrotation
					JOINT LeftForeArm
					{
						OFFSET 25.566900 0.000000 0.000000 
						CHANNELS 3 Zrotation Xrotation Yrotation
						JOINT LeftHand
						{
							OFFSET 25.401896 0.000000 0.000000 
							CHANNELS 3 Zrotation Xrotation Yrotation
							End Site
							{
								OFFSET 14.745877 0.000000 0.000000 
							}
						}
					}
				}
			}
			JOINT RightShoulder
			{
				OFFSET -3.930777 16.042269 -0.398189 
				CHANNELS 3 Zrotation Xrotation Yrotation
				JOINT RightArm
				{
					OFFSET -19.709621 0.000000 0.000000 
					CHANNELS 3 Zrotation Xrotation Yrotation
					JOINT RightForeArm
					{
						OFFSET -25.566900 0.000000 0.000000 
						CHANNELS 3 Zrotation Xrotation Yrotation
						JOINT RightHand
						{
							OFFSET -25.401896 0.000000 0.000000 
							CHANNELS 3 Zrotation Xrotation Yrotation
							End Site
							{
								OFFSET -14.745877 0.000000 0.000000 
							}
						}
					}
				}
			}
		}
	}
	JOINT LeftUpLeg
	{
		OFFSET 9.830585 0.000000 0.000000 
		CHANNELS 3 Zrotation Xrotation Yrotation
		JOINT LeftLeg
		{
			OFFSET -0.000000 -46.474842 0.000000 
			CHANNELS 3 Zrotation Xrotation Yrotation
			JOINT LeftFoot
			{
				OFFSET -0.000000 -30.290520 0.000000 
				CHANNELS 3 Zrotation Xrotation Yrotation
				JOINT LeftToeBase
				{
					OFFSET -0.000000 -6.389880 14.745877 
					CHANNELS 3 Zrotation Xrotation Yrotation
					End Site
					{
						OFFSET -0.000000 0.000000 3.932234 
					}
				}
			}
		}
	}
	JOINT RightUpLeg
	{
		OFFSET -9.830585 0.000000 0.000000 
		CHANNELS 3 Zrotation Xrotation Yrotation
		JOINT RightLeg
		{
			OFFSET -0.000000 -46.474842 0.000000 
			CHANNELS 3 Zrotation Xrotation Yrotation
			JOINT RightFoot
			{
				OFFSET -0.000000 -30.290520 0.000000 
				CHANNELS 3 Zrotation Xrotation Yrotation
				JOINT RightToeBase
				{
					OFFSET -0.000000 -6.389880 14.745877 
					CHANNELS 3 Zrotation Xrotation Yrotation
					End Site
					{
						OFFSET -0.000000 0.000000 3.932234 
					}
				}
			}
		}
	}
}
MOTION
Frames: 9
Frame Time: 0.010000
6.562147 84.789001 0.329782 -0.134945 0.623489 10.434849 2.218402 -4.712169 2.420633 -2.100038 -1.505484 0.746747 3.039535 8.008741 3.125136 -2.634384 11.389983 4.441572 2.671248 11.551999 1.702013 -69.798309 24.993361 -21.920517 -12.344810 1.396116 -4.057423 4.320515 1.254445 7.867942 -8.080967 10.263646 -10.659613 54.487198 54.488823 38.266689 5.927090 -8.859512 9.488025 -8.527607 -9.636473 3.953637 -0.493067 2.716079 3.029541 -0.390159 0.334054 2.934743 5.450584 -3.689501 1.574725 0.000000 0.000000 0.000000 -14.448946 -10.514367 3.604207 13.702067 11.906216 -30.065462 -3.021692 3.149896 5.317832 0.000000 0.000000 0.000000 
6.739048 84.771385 0.407718 -0.131040 0.519294 10.517488 2.204952 -4.696232 2.429580 -2.159834 -1.432244 0.750610 3.030806 8.014006 3.112791 -2.671047 11.408421 4.435859 2.677869 11.592328 1.741204 -69.745537 24.948696 -21.816116 -12.335709 1.384452 -4.005231 4.335294 1.250328 7.880937 -8.073615 10.282050 -10.676561 54.635315 54.397125 38.189655 5.924998 -8.946343 9.489115 -8.835631 -9.737052 3.999697 -0.560912 2.891945 3.017576 -0.405369 0.353754 2.917866 5.496913 -3.815609 1.482216 0.000000 0.000000 0.000000 -14.542851 -10.963299 3.539337 13.919618 12.602801 -30.082962 -3.122442 3.135345 5.396976 0.000000 0.000000 0.000000 
6.908513 84.756775 0.489643 -0.135222 0.419194 10.605571 2.192714 -4.684166 2.434093 -2.211328 -1.359470 0.753211 3.023944 8.019375 3.102544 -2.713227 11.428709 4.434019 2.685178 11.634516 1.780122 -69.697327 24.904613 -21.712706 -12.325567 1.373660 -3.951600 4.348746 1.247170 7.895204 -8.066769 10.300192 -10.693543 54.777817 54.309139 38.115452 5.918247 -9.036129 9.501471 -9.146401 -9.841311 4.048326 -0.619577 3.064706 3.020683 -0.410507 0.368486 2.893859 5.528849 -3.934498 1.381889 0.000000 0.000000 0.000000 -14.614542 -11.410312 3.489475 14.124533 13.259578 -30.042187 -3.262581 3.151475 5.418268 0.000000 0.000000 0.000000 
7.070390 84.745132 0.575782 -0.147148 0.323268 10.699501 2.181077 -4.675680 2.434357 -2.254025 -1.287450 0.754423 3.019075 8.024254 3.094525 -2.760813 11.451596 4.436179 2.693141 11.678417 1.818687 -69.653587 24.861164 -21.610184 -12.315138 1.364122 -3.897759 4.360816 1.245239 7.911036 -8.060427 10.318118 -10.710738 54.913368 54.225224 38.045017 5.907203 -9.127975 9.524680 -9.457571 -9.948293 4.099396 -0.669612 3.240281 2.986943 -0.406068 0.362208 2.916160 5.546912 -4.036275 1.271272 0.000000 0.000000 0.000000 -14.663386 -11.852462 3.457165 14.314856 13.871480 -29.942947 -3.442336 3.196682 5.382741 0.000000 0.000000 0.000000 
7.224591 84.736328 0.666306 -0.166359 0.231604 10.799641 2.169520 -4.670537 2.430447 -2.287702 -1.216348 0.754311 3.016057 8.028544 3.088918 -2.813179 11.476926 4.442323 2.701823 11.724075 1.856784 -69.614265 24.819065 -21.509203 -12.304427 1.355742 -3.844189 4.371296 1.244324 7.928107 -8.054660 10.335566 -10.727809 55.041473 54.145947 37.978348 5.891871 -9.221108 9.558332 -9.766707 -10.057117 4.152728 -0.710623 3.412961 2.966034 -0.392715 0.350680 2.932742 5.551340 -4.131003 1.153178 0.000000 0.000000 0.000000 -14.689076 -12.287221 3.444739 14.489251 14.434220 -29.787554 -3.662346 3.268898 5.293688 0.000000 0.000000 0.000000 
7.371124 84.730186 0.761358 -0.192107 0.144131 10.906328 2.157462 -4.668195 2.422402 -2.312356 -1.146401 0.753023 3.014823 8.031979 3.085826 -2.869978 11.504616 4.452492 2.711348 11.771307 1.894246 -69.579239 24.779100 -21.410061 -12.293592 1.348315 -3.791726 4.379932 1.244251 7.946184 -8.049602 10.352664 -10.744809 55.161083 54.071510 37.916416 5.872663 -9.314611 9.601933 -10.071586 -10.166773 4.207989 -0.743118 3.582860 2.957115 -0.370909 0.334260 2.943893 5.542669 -4.219035 1.027840 0.000000 0.000000 0.000000 -14.691769 -12.712315 3.454306 14.646394 14.945038 -29.578192 -3.922363 3.365521 5.155251 0.000000 0.000000 0.000000 
7.510069 84.726418 0.861027 -0.223489 0.060780 11.019874 2.144434 -4.668056 2.410593 -2.328329 -1.077778 0.750464 3.015457 8.034492 3.085356 -2.931095 11.534183 4.466782 2.721664 11.819965 1.930858 -69.548042 24.741922 -21.313307 -12.282696 1.341709 -3.741053 4.386629 1.244610 7.964874 -8.045271 10.369286 -10.761498 55.271862 54.002110 37.859383 5.849831 -9.407616 9.655042 -10.370037 -10.276288 4.264749 -0.767782 3.753943 2.925769 -0.341724 0.303082 2.983604 5.521843 -4.294790 0.894598 0.000000 0.000000 0.000000 -14.671976 -13.125928 3.487794 14.785185 15.402382 -29.318106 -4.221737 3.483631 4.972844 0.000000 0.000000 0.000000 
7.641582 84.724701 0.965368 -0.259415 -0.018625 11.140579 2.129890 -4.669392 2.395149 -2.336001 -1.010499 0.746809 3.017524 8.035508 3.087692 -2.995755 11.565616 4.485108 2.732741 11.869731 1.966457 -69.520195 24.707907 -21.219286 -12.272299 1.335808 -3.693239 4.391593 1.245266 7.983822 -8.041779 10.385469 -10.777902 55.373085 53.937840 37.808105 5.823774 -9.499398 9.716939 -10.660131 -10.384821 4.322749 -0.785354 3.924163 2.890085 -0.306282 0.263643 3.033631 5.490472 -4.362543 0.754534 0.000000 0.000000 0.000000 -14.630662 -13.526508 3.546729 14.904968 15.805715 -29.011293 -4.559816 3.620135 4.752870 0.000000 0.000000 0.000000 
7.765891 84.724663 1.074398 -0.298644 -0.094313 11.268754 2.113438 -4.671391 2.376383 -2.336113 -0.944559 0.742118 3.020951 8.035066 3.092919 -3.063854 11.598014 4.507498 2.744380 11.920185 2.000730 -69.494926 24.677708 -21.128391 -12.262402 1.330267 -3.649072 4.394711 1.245726 8.002562 -8.039257 10.400588 -10.793350 55.465771 53.879078 37.761368 5.794385 -9.589430 9.787268 -10.939938 -10.491673 4.381320 -0.796515 4.094048 2.846577 -0.265638 0.216082 3.095192 5.449259 -4.422926 0.608922 0.000000 0.000000 0.000000 -14.569184 -13.912858 3.632470 15.005526 16.155361 -28.663134 -4.936400 3.771843 4.503122 0.000000 0.000000 0.000000 
